<?xml version="1.0" encoding="utf-8"?>
<svg xmlns="http://www.w3.org/2000/svg" style="margin: auto; background: none; display: block; shape-rendering: auto; animation-play-state: running; animation-delay: 0s;" width="280" height="250" preserveAspectRatio="xMidYMid">
<style type="text/css" style="animation-play-state: running; animation-delay: 0s;">
  text {
    text-anchor: middle; font-size: 171px; opacity: 0;
  }
</style>
<g style="transform-origin: 140px 125px; transform: scale(1); animation-play-state: running; animation-delay: 0s;">
<g transform="translate(140,125)" style="animation-play-state: running; animation-delay: 0s;">
  <g transform="translate(0,0)" style="animation-play-state: running; animation-delay: 0s;"><g class="path" style="transform: matrix(1, 0, 0, 1, 0, 0); transform-origin: -39.3743px -14.1449px; animation: 1s linear -0.495s infinite normal forwards running bounce-b0353c69-ad49-4cd8-8d59-80899ad7e0cf;"><path d="M61.79-51.77L61.79-51.77L61.79-51.77Q62.79-50.93 63.29-48.26L63.29-48.26L63.29-48.26Q63.79-45.59 63.79-42.42L63.79-42.42L63.79-42.42Q63.79-39.24 63.29-36.57L63.29-36.57L63.29-36.57Q62.79-33.90 61.79-33.40L61.79-33.40L61.79-33.40Q61.29-33.06 59.37-33.23L59.37-33.23L59.37-33.23Q57.45-33.40 54.94-33.90L54.94-33.90L54.94-33.90Q55.27-31.06 55.44-28.22L55.44-28.22L55.44-28.22Q55.61-25.38 55.61-23.55L55.61-23.55L55.61-23.55Q55.61-20.37 54.36-15.36L54.36-15.36L54.36-15.36Q53.10-10.35 51.10-5.59L51.10-5.59L51.10-5.59Q49.10-0.83 46.84 2.50L46.84 2.50L46.84 2.50Q44.59 5.84 42.58 5.68L42.58 5.68L42.58 5.68Q41.25 5.68 38.83 4.59L38.83 4.59L38.83 4.59Q36.40 3.51 33.40 1.92L33.40 1.92L33.40 1.92Q30.39 0.33 27.14-1.67L27.14-1.67L27.14-1.67Q23.88-3.67 21.21-5.59L21.21-5.59L21.21-5.59Q18.54-7.51 16.62-9.18L16.62-9.18L16.62-9.18Q14.70-10.85 14.19-11.86L14.19-11.86L14.19-11.86Q13.36-13.36 12.02-19.04L12.02-19.04L12.02-19.04Q10.69-24.71 9.35-32.98L9.35-32.98L9.35-32.98Q8.02-41.25 7.01-51.18L7.01-51.18L7.01-51.18Q6.01-61.12 6.01-71.14L6.01-71.14L6.01-71.14Q6.01-81.16 6.35-90.84L6.35-90.84L6.35-90.84Q6.68-100.53 7.60-108.29L7.60-108.29L7.60-108.29Q8.52-116.06 10.10-120.82L10.10-120.82L10.10-120.82Q11.69-125.58 14.03-125.91L14.03-125.91L14.03-125.91Q21.04-126.58 29.14-123.91L29.14-123.91L29.14-123.91Q37.24-121.24 44.25-117.06L44.25-117.06L44.25-117.06Q51.27-112.89 55.94-108.38L55.94-108.38L55.94-108.38Q60.62-103.87 60.95-101.03L60.95-101.03L60.95-101.03Q61.12-98.19 60.28-94.77L60.28-94.77L60.28-94.77Q59.45-91.34 58.28-88.09L58.28-88.09L58.28-88.09Q57.11-84.83 55.86-82.24L55.86-82.24L55.86-82.24Q54.61-79.66 53.94-78.65L53.94-78.65L53.94-78.65Q53.10-77.48 51.85-76.15L51.85-76.15L51.85-76.15Q50.60-74.81 49.35-73.81L49.35-73.81L49.35-73.81Q48.09-72.81 46.84-72.39L46.84-72.39L46.84-72.39Q45.59-71.97 44.59-72.64L44.59-72.64L44.59-72.64Q43.92-73.14 43.33-75.81L43.33-75.81L43.33-75.81Q42.75-78.49 42.17-82.24L42.17-82.24L42.17-82.24Q41.58-86.00 41.08-90.26L41.08-90.26L41.08-90.26Q40.58-94.52 40.16-98.19L40.16-98.19L40.16-98.19Q39.74-101.87 39.41-104.37L39.41-104.37L39.41-104.37Q39.08-106.88 38.91-107.21L38.91-107.21L38.91-107.21Q38.58-107.71 37.82-108.21L37.82-108.21L37.82-108.21Q37.07-108.71 36.07-109.05L36.07-109.05L36.07-109.05Q35.07-109.38 34.23-109.30L34.23-109.30L34.23-109.30Q33.40-109.21 32.90-108.38L32.90-108.38L32.90-108.38Q32.40-107.54 31.06-102.20L31.06-102.20L31.06-102.20Q29.72-96.86 28.47-88.84L28.47-88.84L28.47-88.84Q27.22-80.82 26.22-71.06L26.22-71.06L26.22-71.06Q25.22-61.29 25.22-51.43L25.22-51.43L25.22-51.43Q25.22-44.42 25.63-36.82L25.63-36.82L25.63-36.82Q26.05-29.22 26.80-22.96L26.80-22.96L26.80-22.96Q27.55-16.70 28.64-12.52L28.64-12.52L28.64-12.52Q29.72-8.35 30.89-8.35L30.89-8.35L30.89-8.35Q32.06-8.18 34.07-10.77L34.07-10.77L34.07-10.77Q36.07-13.36 37.91-16.78L37.91-16.78L37.91-16.78Q39.74-20.21 41.33-23.46L41.33-23.46L41.33-23.46Q42.92-26.72 43.42-28.05L43.42-28.05L43.42-28.05Q44.25-29.89 45.17-31.81L45.17-31.81L45.17-31.81Q46.09-33.73 47.26-35.57L47.26-35.57L47.26-35.57Q44.59-36.24 42.00-37.07L42.00-37.07L42.00-37.07Q39.41-37.91 37.24-38.66L37.24-38.66L37.24-38.66Q35.07-39.41 33.65-40.16L33.65-40.16L33.65-40.16Q32.23-40.91 31.90-41.41L31.90-41.41L31.90-41.41Q31.39-42.25 31.23-43.67L31.23-43.67L31.23-43.67Q31.06-45.09 31.14-46.51L31.14-46.51L31.14-46.51Q31.23-47.93 31.48-49.18L31.48-49.18L31.48-49.18Q31.73-50.43 31.90-51.27L31.90-51.27L31.90-51.27Q32.23-52.44 36.49-52.94L36.49-52.94L36.49-52.94Q40.75-53.44 46.01-53.44L46.01-53.44L46.01-53.44Q51.27-53.44 55.94-53.02L55.94-53.02L55.94-53.02Q60.62-52.60 61.79-51.77" fill="#e91111" stroke="none" stroke-width="none" transform="translate(-74.27432250976562,46.03369697570801)" style="fill: rgb(233, 17, 17); animation-play-state: running; animation-delay: 0s;"></path></g><g class="path" style="transform: matrix(1, 0, 0, 1, 0, 0); transform-origin: 23.8035px -14.6433px; animation: 1s linear -0.33s infinite normal forwards running bounce-b0353c69-ad49-4cd8-8d59-80899ad7e0cf;"><path d="M73.14-107.54L73.14-107.54L73.14-107.54Q73.98-109.05 76.65-111.47L76.65-111.47L76.65-111.47Q79.32-113.89 83.08-116.39L83.08-116.39L83.08-116.39Q86.84-118.90 91.18-120.99L91.18-120.99L91.18-120.99Q95.52-123.07 99.94-123.82L99.94-123.82L99.94-123.82Q104.37-124.58 108.29-123.49L108.29-123.49L108.29-123.49Q112.22-122.41 115.06-118.73L115.06-118.73L115.06-118.73Q116.56-116.89 117.90-111.38L117.90-111.38L117.90-111.38Q119.23-105.87 120.48-98.11L120.48-98.11L120.48-98.11Q121.74-90.34 122.74-80.91L122.74-80.91L122.74-80.91Q123.74-71.47 124.41-61.70L124.41-61.70L124.41-61.70Q125.08-51.93 125.33-42.50L125.33-42.50L125.33-42.50Q125.58-33.06 125.33-25.13L125.33-25.13L125.33-25.13Q125.08-17.20 124.33-11.61L124.33-11.61L124.33-11.61Q123.57-6.01 122.07-3.84L122.07-3.84L122.07-3.84Q119.07 0.50 112.72 2.00L112.72 2.00L112.72 2.00Q106.37 3.51 99.36 2.09L99.36 2.09L99.36 2.09Q92.35 0.67 86.00-3.67L86.00-3.67L86.00-3.67Q79.66-8.02 76.65-15.36L76.65-15.36L76.65-15.36Q74.65-20.21 73.39-28.56L73.39-28.56L73.39-28.56Q72.14-36.91 71.47-46.67L71.47-46.67L71.47-46.67Q70.80-56.44 70.72-66.63L70.72-66.63L70.72-66.63Q70.64-76.82 70.89-85.42L70.89-85.42L70.89-85.42Q71.14-94.02 71.72-100.03L71.72-100.03L71.72-100.03Q72.31-106.04 73.14-107.54zM105.87-22.88L105.87-22.88L105.87-22.88Q106.88-23.88 107.29-28.31L107.29-28.31L107.29-28.31Q107.71-32.73 107.79-38.83L107.79-38.83L107.79-38.83Q107.88-44.92 107.79-51.77L107.79-51.77L107.79-51.77Q107.71-58.61 107.71-64.46L107.71-64.46L107.71-64.46Q107.71-79.32 106.71-87.50L106.71-87.50L106.71-87.50Q105.71-95.69 104.37-99.69L104.37-99.69L104.37-99.69Q102.87-104.37 101.03-105.54L101.03-105.54L101.03-105.54Q98.53-105.04 96.86-103.95L96.86-103.95L96.86-103.95Q95.19-102.87 94.18-101.53L94.18-101.53L94.18-101.53Q93.01-100.03 92.35-98.36L92.35-98.36L92.35-98.36Q91.85-96.86 91.26-92.51L91.26-92.51L91.26-92.51Q90.68-88.17 90.18-82.24L90.18-82.24L90.18-82.24Q89.67-76.32 89.26-69.39L89.26-69.39L89.26-69.39Q88.84-62.46 88.59-55.78L88.59-55.78L88.59-55.78Q88.34-49.10 88.26-43.17L88.26-43.17L88.26-43.17Q88.17-37.24 88.34-33.40L88.34-33.40L88.34-33.40Q88.67-27.55 91.09-24.88L91.09-24.88L91.09-24.88Q93.52-22.21 96.35-21.46L96.35-21.46L96.35-21.46Q99.19-20.71 101.95-21.38L101.95-21.38L101.95-21.38Q104.70-22.04 105.87-22.88" fill="#e91111" stroke="none" stroke-width="none" transform="translate(-74.27432250976562,46.03369697570801)" style="fill: rgb(8, 8, 8); animation-play-state: running; animation-delay: 0s;"></path></g><g class="path" style="transform: matrix(1, 0, 0, 1, 0, 0); transform-origin: 72.9785px -30.692px; animation: 1s linear -0.165s infinite normal forwards running bounce-b0353c69-ad49-4cd8-8d59-80899ad7e0cf;"><path d="M156.81-122.57L156.81-122.57L156.81-122.57Q157.14-121.57 157.06-114.81L157.06-114.81L157.06-114.81Q156.97-108.04 156.56-98.27L156.56-98.27L156.56-98.27Q156.14-88.51 155.47-77.40L155.47-77.40L155.47-77.40Q154.80-66.30 154.05-56.53L154.05-56.53L154.05-56.53Q153.30-46.76 152.55-39.99L152.55-39.99L152.55-39.99Q151.80-33.23 151.13-32.23L151.13-32.23L151.13-32.23Q149.46-29.56 146.12-29.14L146.12-29.14L146.12-29.14Q142.78-28.72 141.11-29.06L141.11-29.06L141.11-29.06Q140.61-29.22 140.11-32.73L140.11-32.73L140.11-32.73Q139.61-36.24 139.19-42.08L139.19-42.08L139.19-42.08Q138.77-47.93 138.44-55.44L138.44-55.44L138.44-55.44Q138.10-62.96 137.94-70.89L137.94-70.89L137.94-70.89Q137.77-78.82 137.60-86.59L137.60-86.59L137.60-86.59Q137.43-94.35 137.43-100.70L137.43-100.70L137.43-100.70Q137.43-107.04 137.60-111.38L137.60-111.38L137.60-111.38Q137.77-115.73 138.10-116.89L138.10-116.89L138.10-116.89Q138.77-119.23 141.44-121.07L141.44-121.07L141.44-121.07Q144.11-122.91 147.29-123.82L147.29-123.82L147.29-123.82Q150.46-124.74 153.22-124.49L153.22-124.49L153.22-124.49Q155.97-124.24 156.81-122.57" fill="#e91111" stroke="none" stroke-width="none" transform="translate(-74.27432250976562,46.03369697570801)" style="fill: rgb(255, 209, 18); animation-play-state: running; animation-delay: 0s;"></path></g><g class="path" style="transform: matrix(1, 0, 0, 1, 0, 0); transform-origin: 71.7394px 36.9693px; animation: 1s linear 0s infinite normal forwards running bounce-b0353c69-ad49-4cd8-8d59-80899ad7e0cf;"><path d="M153.97-17.37L153.97-17.37L153.97-17.37Q154.63-16.20 154.55-14.11L154.55-14.11L154.55-14.11Q154.47-12.02 154.05-9.77L154.05-9.77L154.05-9.77Q153.63-7.51 152.88-5.43L152.88-5.43L152.88-5.43Q152.13-3.34 151.29-2.00L151.29-2.00L151.29-2.00Q150.63-1.00 149.46-0.33L149.46-0.33L149.46-0.33Q148.29 0.33 146.95 0.58L146.95 0.58L146.95 0.58Q145.62 0.83 144.45 0.83L144.45 0.83L144.45 0.83Q143.28 0.83 142.61 0.83L142.61 0.83L142.61 0.83Q141.61 0.67 140.52-0.67L140.52-0.67L140.52-0.67Q139.44-2.00 138.69-3.92L138.69-3.92L138.69-3.92Q137.94-5.84 137.60-8.10L137.60-8.10L137.60-8.10Q137.27-10.35 137.77-12.36L137.77-12.36L137.77-12.36Q138.27-14.19 140.61-15.78L140.61-15.78L140.61-15.78Q142.95-17.37 145.70-18.20L145.70-18.20L145.70-18.20Q148.46-19.04 150.88-18.95L150.88-18.95L150.88-18.95Q153.30-18.87 153.97-17.37" fill="#e91111" stroke="none" stroke-width="none" transform="translate(-74.27432250976562,46.03369697570801)" style="fill: rgb(14, 14, 14); animation-play-state: running; animation-delay: 0s;"></path></g></g>
</g>
</g>
<style id="bounce-b0353c69-ad49-4cd8-8d59-80899ad7e0cf" data-anikit="">@keyframes bounce-b0353c69-ad49-4cd8-8d59-80899ad7e0cf
{
  0% {
    animation-timing-function: cubic-bezier(0.1361,0.2514,0.2175,0.8786);
    transform: translate(0,0px) scaleY(1);
  }
  37% {
    animation-timing-function: cubic-bezier(0.7674,0.1844,0.8382,0.7157);
    transform: translate(0,-39.96px) scaleY(1);
  }
  72% {
    animation-timing-function: cubic-bezier(0.1118,0.2149,0.2172,0.941);
    transform: translate(0,0px) scaleY(1);
  }
  87% {
    animation-timing-function: cubic-bezier(0.7494,0.2259,0.8209,0.6963);
    transform: translate(0,19.900000000000002px) scaleY(0.602);
  }
  100% {
    transform: translate(0,0px) scaleY(1);
  }
}</style></svg>